<svg xmlns="http://www.w3.org/2000/svg" viewBox="0 0 123.25 95"><title>happy-trails-logo</title><rect width="123.25" height="95" style="fill:#324031"/><polygon points="39.45 35.67 36.01 34.99 28.57 51.43 21.59 52.88 14.5 72.67 55.72 73.87 51.64 17.38 39.45 35.67" style="fill:#a2bfcb"/><polygon points="92.86 73.58 76.35 45.98 68.4 73.86 92.86 73.58" style="fill:#47a4c9"/><polygon points="78.63 61.91 63.83 34.22 56.2 46.89 54.75 73.87 86.03 73.58 78.63 61.91" style="fill:#0287b5"/><polygon points="62.38 52.32 51.64 17.38 47.75 47.8 41.25 57.58 42.72 68.08 40.77 73.87 75.55 73.86 62.38 52.32" style="fill:#4c6673"/><polygon points="75.23 53.58 81.88 46.77 85.97 48.89 90.81 46.77 106.78 74.13 75.23 54.19 75.23 53.58" style="fill:#4c6673"/><polygon points="54.96 42.92 62.67 33.16 70.24 40.87 72.96 40.87 81.13 51.99 92.17 52.98 106.78 74.13 56.68 71.28 53.3 60.99 54.96 42.92" style="fill:#324e73"/><polygon points="56.92 54.64 59.04 51.01 56.77 42.54 62.67 33.16 57.08 36.19 48.76 44.2 46.49 62.35 31.66 76.12 46.19 77.48 59.5 69.61 58.89 61.6 56.92 54.64" style="fill:#0092d0"/><polygon points="62.49 78.05 30.54 78.8 28.46 72.7 56.14 62.46 70.62 62.46 62.49 78.05" style="fill:#c8a244"/><polygon points="47.17 44.5 40.74 44.5 34.08 51.99 23.19 54.64 13.21 73.25 36.51 63.87 47.17 44.5" style="fill:#0092d0"/><path d="M53.29,44.5l3.79-8.32-8.63,6a18.52,18.52,0,0,0-5.29,5.45c-2,3.33-4.08,5.6-10.89,6.66s-9.79,13.41-9.79,13.41l24-2.67,5.29-10L50,52l4.53-3.4Z" style="fill:#b5dcf2"/><path d="M32.87,63.82c9.34-1.33,23.27-1.36,23.27-1.36s4.65,4.37-4.12,6.43S39.77,71.41,35.83,73.1a10.38,10.38,0,0,0-5.29,5.7l-3.72-.19C16.08,78,15.18,75.33,13.21,73.25,13.21,73.25,18.15,65.93,32.87,63.82Z" style="fill:#4c924d"/><path d="M52,78.24s-3.33-4.91,5.14-6.83c3.91-.88,12.78-3.27,9.64-6.4A9.19,9.19,0,0,0,62,62.46s18.81-1.37,27.45,1.4a51.34,51.34,0,0,1,17.29,10.27h0C103.39,78.8,52,78.24,52,78.24Z" style="fill:#4c924d"/><path d="M61.83,16.42h2.32v3.43h2.64V16.42h2.33v8.91H66.79V21.94H64.15v3.39H61.83Z" style="fill:#d1c8a9"/><path d="M70.55,25a1.6,1.6,0,0,1-.46-1.2V23.1a1.52,1.52,0,0,1,.56-1.22,2.56,2.56,0,0,1,1.65-.46h1.3v-.2a.66.66,0,0,0-.09-.39.46.46,0,0,0-.34-.18,3.9,3.9,0,0,0-.81-.06H70.48V19.26a7,7,0,0,1,1.22-.34,8.6,8.6,0,0,1,1.54-.13,3.46,3.46,0,0,1,2,.49,2,2,0,0,1,.68,1.77v4.28H74.08l-.36-.64a2.44,2.44,0,0,1-.78.5,3,3,0,0,1-1.18.21A1.64,1.64,0,0,1,70.55,25Zm2.77-1.19.28-.1V22.5l-.49.07a1.24,1.24,0,0,0-.52.18.48.48,0,0,0-.17.39v.24a.38.38,0,0,0,.15.34.69.69,0,0,0,.42.1A1.56,1.56,0,0,0,73.32,23.77Z" style="fill:#d1c8a9"/><path d="M77,18.87h2l.36.58a4.08,4.08,0,0,1,.76-.53,1.88,1.88,0,0,1,.82-.16,1.92,1.92,0,0,1,1.72.82,4.6,4.6,0,0,1,.56,2.54,6.93,6.93,0,0,1-.19,1.8,2,2,0,0,1-.7,1.11,2.15,2.15,0,0,1-1.39.4,3.56,3.56,0,0,1-1.58-.3v3.05H77Zm3.86,3.25a2.63,2.63,0,0,0-.18-1.18.58.58,0,0,0-.55-.32,1.41,1.41,0,0,0-.45.07,1,1,0,0,0-.35.17v2.48a.83.83,0,0,0,.34.13,1.73,1.73,0,0,0,.45.05C80.57,23.52,80.82,23.05,80.82,22.12Z" style="fill:#d1c8a9"/><path d="M84,18.87h2l.36.58a4.08,4.08,0,0,1,.76-.53,1.88,1.88,0,0,1,.82-.16,1.92,1.92,0,0,1,1.72.82,4.6,4.6,0,0,1,.56,2.54,6.93,6.93,0,0,1-.19,1.8,2,2,0,0,1-.7,1.11,2.15,2.15,0,0,1-1.39.4,3.56,3.56,0,0,1-1.58-.3v3.05H84Zm3.86,3.25a2.63,2.63,0,0,0-.18-1.18.58.58,0,0,0-.55-.32,1.41,1.41,0,0,0-.45.07,1,1,0,0,0-.35.17v2.48a.83.83,0,0,0,.34.13,1.73,1.73,0,0,0,.45.05C87.65,23.52,87.9,23.05,87.9,22.12Z" style="fill:#d1c8a9"/><path d="M93.71,25.33a2.11,2.11,0,0,1-2.27-1.87l-1-4.59h2.41L93.59,23a.5.5,0,0,0,.52.47l.82-4.59H97.3L95.65,27l-.6,1.19h-2Z" style="fill:#d1c8a9"/><path d="M78.94,34.38H76.69V32.29h6.82v2.09H81.26v6.83H78.94Z" style="fill:#d1c8a9"/><path d="M84,34.74H85.8l.52.9a3.3,3.3,0,0,1,.71-.73,1.45,1.45,0,0,1,.87-.27,1.75,1.75,0,0,1,.48.06v2.39c-.37,0-.63-.05-.79-.05a1.46,1.46,0,0,0-1.27.51v3.66H84Z" style="fill:#d1c8a9"/><path d="M89.15,40.84a1.59,1.59,0,0,1-.46-1.2V39a1.53,1.53,0,0,1,.55-1.22,2.53,2.53,0,0,1,1.66-.46h1.3v-.21a.7.7,0,0,0-.09-.39.54.54,0,0,0-.34-.18,5,5,0,0,0-.81-.05H89.08V35.14a7,7,0,0,1,1.22-.35,8.68,8.68,0,0,1,1.54-.12,3.51,3.51,0,0,1,2,.48,2.06,2.06,0,0,1,.67,1.77v4.29H92.68l-.36-.65a2.69,2.69,0,0,1-.78.5,2.83,2.83,0,0,1-1.18.22A1.68,1.68,0,0,1,89.15,40.84Zm2.76-1.2a1.58,1.58,0,0,0,.29-.1V38.38l-.5.07a1,1,0,0,0-.51.18A.46.46,0,0,0,91,39v.24a.39.39,0,0,0,.14.34.72.72,0,0,0,.42.11A1.05,1.05,0,0,0,91.91,39.64Z" style="fill:#d1c8a9"/><path d="M95.61,33.85a.3.3,0,0,1-.08-.2V32.32a.39.39,0,0,1,.07-.23.29.29,0,0,1,.22-.07h1.82a.22.22,0,0,1,.2.08.32.32,0,0,1,.07.22v1.33a.24.24,0,0,1-.27.27H95.82A.28.28,0,0,1,95.61,33.85Zm0,.89h2.32v6.47H95.56Z" style="fill:#d1c8a9"/><path d="M99.49,40.71a2.13,2.13,0,0,1-.55-1.6V32.05h2.33v6.7a.93.93,0,0,0,.12.52.55.55,0,0,0,.39.22l.4.06v1.69h-1A2.33,2.33,0,0,1,99.49,40.71Z" style="fill:#d1c8a9"/><path d="M103.88,41.19a4,4,0,0,1-1.1-.28V39.55h3a.62.62,0,0,0,.29,0,.22.22,0,0,0,.07-.19v-.15a.23.23,0,0,0-.09-.2.7.7,0,0,0-.35-.06h-1.08a2.19,2.19,0,0,1-1.44-.44,1.74,1.74,0,0,1-.54-1.42v-.39a2.23,2.23,0,0,1,.24-1.09,1.55,1.55,0,0,1,.87-.65,5,5,0,0,1,1.69-.23,8.81,8.81,0,0,1,1.32.11,6,6,0,0,1,1,.26v1.36H105a.54.54,0,0,0-.26.05.21.21,0,0,0-.09.19v.15a.2.2,0,0,0,.11.2.77.77,0,0,0,.37.06h1.12a2,2,0,0,1,1.46.45,1.82,1.82,0,0,1,.45,1.32v.66a1.49,1.49,0,0,1-.69,1.38,4.28,4.28,0,0,1-2.13.41A10.45,10.45,0,0,1,103.88,41.19Z" style="fill:#d1c8a9"/><circle cx="27.83" cy="22.25" r="6" style="fill:#ff4d5c"/><ellipse cx="27.17" cy="21.58" rx="6.08" ry="5.67" style="fill:#ffc15c"/></svg>