<svg xmlns="http://www.w3.org/2000/svg" viewBox="0 0 16.73 32"><title>Artboard 1</title><path d="M8.34,30.06a68.42,68.42,0,0,0-5.13-12.8C1.58,14,.5,11.88.5,8.37a7.87,7.87,0,1,1,15.73,0c0,3.36-1.12,5.52-2.67,8.51A58.36,58.36,0,0,0,8.34,30.06Z" style="fill:#d75444"/><path d="M8.37,1a7.37,7.37,0,0,1,7.36,7.37c0,3.24-1,5.24-2.61,8.27a59.93,59.93,0,0,0-4.8,11.64A69.19,69.19,0,0,0,3.65,17C2.06,13.86,1,11.76,1,8.37A7.37,7.37,0,0,1,8.37,1m0-1A8.37,8.37,0,0,0,0,8.37C0,15.55,4.42,17.31,8.37,32c3.56-14.74,8.36-16.49,8.36-23.63A8.36,8.36,0,0,0,8.37,0Z"/><path d="M11.73,3A5.51,5.51,0,0,1,14.38,7.5,4.21,4.21,0,0,0,14.47,7c.33-2.51-1.71-4.85-4.56-5.22A6,6,0,0,0,7.55,2,6.16,6.16,0,0,1,11.73,3Z" style="fill:#fffdfd"/><path d="M4.87,4.13H6l4.9,7.66V4.13h1.36v10h-1.1L6.24,6.46v7.67H4.87Z"/></svg>